<svg width="96" height="96" xmlns="http://www.w3.org/2000/svg" xmlns:svg="http://www.w3.org/2000/svg" viewBox="0 0 96 96"><path clip-rule="evenodd" d="m47.97,0c-26.53,0 -47.97,22 -47.97,49.22c0,21.75 13.74,40.17 32.81,46.69c2.38,0.49 3.25,-1.06 3.25,-2.36c0,-1.15 -0.08,-5.06 -0.08,-9.13c-13.35,2.93 -16.13,-5.87 -16.13,-5.87c-2.14,-5.7 -5.32,-7.17 -5.32,-7.17c-4.37,-3.01 0.32,-3.01 0.32,-3.01c4.84,0.32 7.39,5.05 7.39,5.05c4.29,7.49 11.2,5.38 13.97,4.07c0.4,-3.18 1.67,-5.38 3.02,-6.6c-10.65,-1.14 -21.85,-5.38 -21.85,-24.28c0,-5.38 1.91,-9.78 4.93,-13.2c-0.48,-1.22 -2.15,-6.28 0.47,-13.04c0,0 4.06,-1.3 13.19,5.05a46.13,46.97 0 0 1 11.99,-1.63c4.06,0 8.18,0.57 12,1.63c9.13,-6.35 13.18,-5.05 13.18,-5.05c2.62,6.76 0.95,11.82 0.48,13.04c3.09,3.42 4.92,7.82 4.92,13.2c0,18.9 -11.2,23.06 -21.92,24.28c1.75,1.55 3.26,4.48 3.26,9.13c0,6.6 -0.08,11.9 -0.08,13.52c0,1.31 0.87,2.86 3.25,2.37c19.06,-6.52 32.81,-24.94 32.81,-46.69c0.08,-27.22 -21.45,-49.22 -47.91,-49.22l0.02,0z"/></svg>